<?xml version="1.0" encoding="UTF-8" standalone="no"?>
<!-- Created with Inkscape (http://www.inkscape.org/) -->

<svg
   xmlns:dc="http://purl.org/dc/elements/1.1/"
   xmlns:cc="http://creativecommons.org/ns#"
   xmlns:rdf="http://www.w3.org/1999/02/22-rdf-syntax-ns#"
   xmlns:svg="http://www.w3.org/2000/svg"
   xmlns="http://www.w3.org/2000/svg"
   xmlns:sodipodi="http://sodipodi.sourceforge.net/DTD/sodipodi-0.dtd"
   xmlns:inkscape="http://www.inkscape.org/namespaces/inkscape"
   width="744.09448819"
   height="1052.3622047"
   id="svg2"
   version="1.1"
   inkscape:version="0.48.4 r9939"
   sodipodi:docname="killer.svg">
  <defs
     id="defs4" />
  <sodipodi:namedview
     id="base"
     pagecolor="#ffffff"
     bordercolor="#666666"
     borderopacity="1.0"
     inkscape:pageopacity="0.0"
     inkscape:pageshadow="2"
     inkscape:zoom="0.98994949"
     inkscape:cx="431.16708"
     inkscape:cy="264.49097"
     inkscape:document-units="px"
     inkscape:current-layer="layer1"
     showgrid="true"
     inkscape:window-width="959"
     inkscape:window-height="744"
     inkscape:window-x="65"
     inkscape:window-y="24"
     inkscape:window-maximized="1">
    <inkscape:grid
       type="xygrid"
       id="grid2985"
       empspacing="5"
       visible="true"
       enabled="true"
       snapvisiblegridlinesonly="true" />
  </sodipodi:namedview>
  <metadata
     id="metadata7">
    <rdf:RDF>
      <cc:Work
         rdf:about="">
        <dc:format>image/svg+xml</dc:format>
        <dc:type
           rdf:resource="http://purl.org/dc/dcmitype/StillImage" />
        <dc:title />
      </cc:Work>
    </rdf:RDF>
  </metadata>
  <g
     inkscape:label="Layer 1"
     inkscape:groupmode="layer"
     id="layer1">
    <rect
       style="fill:#cccccc"
       id="rect2989"
       width="598.80579"
       height="475.86246"
       x="71.194031"
       y="436.50012" />
    <path
       style="fill:none;stroke:#000000;stroke-width:1.48279524px;stroke-linecap:butt;stroke-linejoin:miter;stroke-opacity:1"
       d="m 270.79597,436.50011 0,158.62083 -199.601939,0 0,-158.62083 z"
       id="path2991"
       inkscape:connector-curvature="0" />
    <path
       style="fill:none;stroke:#000000;stroke-width:1.48279524px;stroke-linecap:butt;stroke-linejoin:miter;stroke-opacity:1"
       d="m 270.79597,436.50011 199.60194,0 0,158.62083 -199.60194,0 z"
       id="path2993"
       inkscape:connector-curvature="0" />
    <path
       style="fill:none;stroke:#000000;stroke-width:1.48279524px;stroke-linecap:butt;stroke-linejoin:miter;stroke-opacity:1"
       d="m 470.39791,436.50011 0,158.62083 199.60195,0 0,-158.62083 z"
       id="path2995"
       inkscape:connector-curvature="0" />
    <path
       style="fill:none;stroke:#000000;stroke-width:1.48279524px;stroke-linecap:butt;stroke-linejoin:miter;stroke-opacity:1"
       d="m 71.194031,595.12094 0,158.62081 199.601939,0 0,-158.62081 z"
       id="path2997"
       inkscape:connector-curvature="0" />
    <path
       style="fill:none;stroke:#000000;stroke-width:1.48279524px;stroke-linecap:butt;stroke-linejoin:miter;stroke-opacity:1"
       d="m 270.79597,595.12094 0,158.62081 199.60194,0 0,-158.62081 -199.60194,0"
       id="path2999"
       inkscape:connector-curvature="0" />
    <path
       style="fill:none;stroke:#000000;stroke-width:1.48279524px;stroke-linecap:butt;stroke-linejoin:miter;stroke-opacity:1"
       d="m 470.39791,595.12094 0,158.62081 199.60195,0 0,-158.62081 z"
       id="path3001"
       inkscape:connector-curvature="0" />
    <path
       style="fill:none;stroke:#000000;stroke-width:1.48279524px;stroke-linecap:butt;stroke-linejoin:miter;stroke-opacity:1"
       d="m 71.194031,753.74175 0,158.62081 199.601939,0 0,-158.62081 z"
       id="path3003"
       inkscape:connector-curvature="0" />
    <path
       style="fill:none;stroke:#000000;stroke-width:1.48279524px;stroke-linecap:butt;stroke-linejoin:miter;stroke-opacity:1"
       d="m 270.79597,753.74175 0,158.62081 199.60194,0 0,-158.62081 0,158.62081 0,-158.62081 z"
       id="path3005"
       inkscape:connector-curvature="0" />
    <path
       style="fill:none;stroke:#000000;stroke-width:1.48279524px;stroke-linecap:butt;stroke-linejoin:miter;stroke-opacity:1"
       d="m 470.39791,753.74175 0,158.62081 c 0,0 199.60195,0 199.60195,0 l 0,-158.62081 z"
       id="path3007"
       inkscape:connector-curvature="0" />
    <path
       style="fill:#ffff00;stroke:#000000;stroke-width:1.48279524px;stroke-linecap:butt;stroke-linejoin:miter;stroke-opacity:1"
       d="m 137.72801,436.50011 0,52.87361 -66.533979,0 0,-52.87361 z"
       id="path3009"
       inkscape:connector-curvature="0" />
    <path
       style="fill:#ffff00;stroke:#000000;stroke-width:1.48279524px;stroke-linecap:butt;stroke-linejoin:miter;stroke-opacity:1"
       d="m 137.72801,436.50011 66.53398,0 0,52.87361 -66.53398,0 z"
       id="path3011"
       inkscape:connector-curvature="0" />
    <path
       style="fill:#66ff00;stroke:#000000;stroke-width:1.48279524px;stroke-linecap:butt;stroke-linejoin:miter;stroke-opacity:1"
       d="m 204.26199,436.50011 66.53398,0 0,52.87361 -66.53398,0 z"
       id="path3013"
       inkscape:connector-curvature="0" />
    <path
       style="fill:#ffff00;stroke:#000000;stroke-width:1.48279523999999996px;stroke-linecap:butt;stroke-linejoin:miter;stroke-opacity:1"
       d="m 71.194031,489.37372 0,52.87362 66.533979,0 0,-52.87362 z"
       id="path3015"
       inkscape:connector-curvature="0" />
    <path
       style="fill:none;stroke:#000000;stroke-width:1.48279524px;stroke-linecap:butt;stroke-linejoin:miter;stroke-opacity:1"
       d="m 137.72801,489.37372 0,52.87362 c 0,0 66.53398,0 66.53398,0 l 0,-52.87362 z"
       id="path3017"
       inkscape:connector-curvature="0" />
    <path
       style="fill:none;stroke:#000000;stroke-width:1.48279524px;stroke-linecap:butt;stroke-linejoin:miter;stroke-opacity:1"
       d="m 204.26199,489.37372 0,52.87362 66.53398,0 0,-52.87362 z"
       id="path3019"
       inkscape:connector-curvature="0" />
    <path
       style="fill:none;stroke:#000000;stroke-width:1.48279524px;stroke-linecap:butt;stroke-linejoin:miter;stroke-opacity:1"
       d="m 71.194031,542.24734 0,52.8736 66.533979,0 0,-52.8736 -66.533979,0"
       id="path3021"
       inkscape:connector-curvature="0" />
    <path
       style="fill:none;stroke:#000000;stroke-width:1.48279524px;stroke-linecap:butt;stroke-linejoin:miter;stroke-opacity:1"
       d="m 137.72801,542.24734 0,52.8736 66.53398,0 0,-52.8736 z"
       id="path3023"
       inkscape:connector-curvature="0" />
    <path
       style="fill:#ffff00;stroke:#000000;stroke-width:1.48279524px;stroke-linecap:butt;stroke-linejoin:miter;stroke-opacity:1"
       d="m 204.26199,542.24734 0,52.8736 66.53398,0 0,-52.8736 z"
       id="path3025"
       inkscape:connector-curvature="0" />
    <path
       style="fill:none;stroke:#000000;stroke-width:1.48279524px;stroke-linecap:butt;stroke-linejoin:miter;stroke-opacity:1"
       d="m 270.79597,436.50011 0,52.87361 66.53398,0 0,-52.87361 z"
       id="path3027"
       inkscape:connector-curvature="0" />
    <path
       style="fill:none;stroke:#000000;stroke-width:1.48279524px;stroke-linecap:butt;stroke-linejoin:miter;stroke-opacity:1"
       d="m 337.32995,436.50011 0,52.87361 c 0,0 66.53398,0 66.53398,0 l 0,-52.87361 z"
       id="path3029"
       inkscape:connector-curvature="0" />
    <path
       style="fill:none;stroke:#000000;stroke-width:1.48279524px;stroke-linecap:butt;stroke-linejoin:miter;stroke-opacity:1"
       d="m 337.32995,436.50011 66.53398,0 0,52.87361 66.53398,0 0,-52.87361 -66.53398,0"
       id="path3031"
       inkscape:connector-curvature="0" />
    <path
       style="fill:none;stroke:#000000;stroke-width:1.48279524px;stroke-linecap:butt;stroke-linejoin:miter;stroke-opacity:1"
       d="m 470.39791,436.50011 0,52.87361 66.53399,0 0,-52.87361 z"
       id="path3033"
       inkscape:connector-curvature="0" />
    <path
       style="fill:none;stroke:#000000;stroke-width:1.48279524px;stroke-linecap:butt;stroke-linejoin:miter;stroke-opacity:1"
       d="m 536.9319,436.50011 0,52.87361 66.53398,0 0,-52.87361 z"
       id="path3033-2"
       inkscape:connector-curvature="0" />
    <path
       style="fill:none;stroke:#000000;stroke-width:1.48279524px;stroke-linecap:butt;stroke-linejoin:miter;stroke-opacity:1"
       d="m 270.79597,595.12094 0,158.62081 -199.601939,0 0,-158.62081 z"
       id="path2991-9"
       inkscape:connector-curvature="0" />
    <path
       style="fill:#ffff00;stroke:#000000;stroke-width:1.48279524px;stroke-linecap:butt;stroke-linejoin:miter;stroke-opacity:1"
       d="m 137.72801,595.12094 0,52.87359 -66.533979,0 0,-52.87359 z"
       id="path3009-0"
       inkscape:connector-curvature="0" />
    <path
       style="fill:none;stroke:#000000;stroke-width:1.48279524px;stroke-linecap:butt;stroke-linejoin:miter;stroke-opacity:1"
       d="m 137.72801,595.12094 66.53398,0 0,52.87359 -66.53398,0 z"
       id="path3011-6"
       inkscape:connector-curvature="0" />
    <path
       style="fill:none;stroke:#000000;stroke-width:1.48279524px;stroke-linecap:butt;stroke-linejoin:miter;stroke-opacity:1"
       d="m 204.26199,595.12094 66.53398,0 0,52.87359 -66.53398,0 z"
       id="path3013-2"
       inkscape:connector-curvature="0" />
    <path
       style="fill:#ffff00;stroke:#000000;stroke-width:1.48279524px;stroke-linecap:butt;stroke-linejoin:miter;stroke-opacity:1"
       d="m 71.194031,647.99453 0,52.87361 66.533979,0 0,-52.87361 z"
       id="path3015-7"
       inkscape:connector-curvature="0" />
    <path
       style="fill:#2aff2a;stroke:#000000;stroke-width:1.48279524px;stroke-linecap:butt;stroke-linejoin:miter;stroke-opacity:1"
       d="m 137.72801,647.99453 0,52.87361 c 0,0 66.53398,0 66.53398,0 l 0,-52.87361 z"
       id="path3017-0"
       inkscape:connector-curvature="0" />
    <path
       style="fill:#00ff00;stroke:#000000;stroke-width:1.48279524px;stroke-linecap:butt;stroke-linejoin:miter;stroke-opacity:1"
       d="m 204.26199,647.99453 0,52.87361 66.53398,0 0,-52.87361 z"
       id="path3019-9"
       inkscape:connector-curvature="0" />
    <path
       style="fill:none;stroke:#000000;stroke-width:1.48279524px;stroke-linecap:butt;stroke-linejoin:miter;stroke-opacity:1"
       d="m 71.194031,700.86814 0,52.87361 66.533979,0 0,-52.87361 -66.533979,0"
       id="path3021-9"
       inkscape:connector-curvature="0" />
    <path
       style="fill:#00ff00;stroke:#000000;stroke-width:1.48279524px;stroke-linecap:butt;stroke-linejoin:miter;stroke-opacity:1"
       d="m 137.72801,700.86814 0,52.87361 66.53398,0 0,-52.87361 z"
       id="path3023-3"
       inkscape:connector-curvature="0" />
    <path
       style="fill:#ffff00;stroke:#000000;stroke-width:1.48279524px;stroke-linecap:butt;stroke-linejoin:miter;stroke-opacity:1"
       d="m 204.26199,700.86814 0,52.87361 66.53398,0 0,-52.87361 z"
       id="path3025-6"
       inkscape:connector-curvature="0" />
    <path
       style="fill:none;stroke:#000000;stroke-width:1.48279524px;stroke-linecap:butt;stroke-linejoin:miter;stroke-opacity:1"
       d="m 669.99986,436.50011 0,158.62083 -199.60195,0 0,-158.62083 z"
       id="path2991-8"
       inkscape:connector-curvature="0" />
    <path
       style="fill:#00ff00;stroke:#000000;stroke-width:1.48279524px;stroke-linecap:butt;stroke-linejoin:miter;stroke-opacity:1"
       d="m 536.9319,436.50011 0,52.87361 -66.53399,0 0,-52.87361 z"
       id="path3009-6"
       inkscape:connector-curvature="0" />
    <path
       style="fill:#ffff00;fill-opacity:1;stroke:#000000;stroke-width:1.48279524px;stroke-linecap:butt;stroke-linejoin:miter;stroke-opacity:1"
       d="m 536.9319,436.50011 66.53398,0 0,52.87361 -66.53398,0 z"
       id="path3011-8"
       inkscape:connector-curvature="0" />
    <path
       style="fill:#66ff00;fill-opacity:1;stroke:#000000;stroke-width:1.48279524px;stroke-linecap:butt;stroke-linejoin:miter;stroke-opacity:1"
       d="m 603.46588,436.50011 66.53398,0 0,52.87361 -66.53398,0 z"
       id="path3013-0"
       inkscape:connector-curvature="0" />
    <path
       style="fill:none;stroke:#000000;stroke-width:1.48279524px;stroke-linecap:butt;stroke-linejoin:miter;stroke-opacity:1"
       d="m 470.39791,489.37372 0,52.87361 66.53399,0 0,-52.87361 z"
       id="path3015-4"
       inkscape:connector-curvature="0" />
    <path
       style="fill:#ffff00;stroke:#000000;stroke-width:1.48279524px;stroke-linecap:butt;stroke-linejoin:miter;stroke-opacity:1"
       d="m 536.9319,489.37372 0,52.87361 c 0,0 66.53398,0 66.53398,0 l 0,-52.87361 z"
       id="path3017-4"
       inkscape:connector-curvature="0" />
    <path
       style="fill:#66ff00;stroke:#000000;stroke-width:1.48279524px;stroke-linecap:butt;stroke-linejoin:miter;stroke-opacity:1"
       d="m 603.46588,489.37372 0,52.87361 66.53398,0 0,-52.87361 z"
       id="path3019-2"
       inkscape:connector-curvature="0" />
    <path
       style="fill:none;stroke:#000000;stroke-width:1.48279524px;stroke-linecap:butt;stroke-linejoin:miter;stroke-opacity:1"
       d="m 470.39791,542.24733 0,52.87361 66.53399,0 0,-52.87361 -66.53399,0"
       id="path3021-4"
       inkscape:connector-curvature="0" />
    <path
       style="fill:none;stroke:#000000;stroke-width:1.48279524px;stroke-linecap:butt;stroke-linejoin:miter;stroke-opacity:1"
       d="m 536.9319,542.24733 0,52.87361 66.53398,0 0,-52.87361 z"
       id="path3023-0"
       inkscape:connector-curvature="0" />
    <path
       style="fill:#66ff00;stroke:#66ff00;stroke-width:1.48279524px;stroke-linecap:butt;stroke-linejoin:miter;stroke-opacity:1"
       d="m 603.46588,542.24733 0,52.87361 66.53398,0 0,-52.87361 z"
       id="path3025-2"
       inkscape:connector-curvature="0" />
    <path
       style="fill:none;stroke:#000000;stroke-width:1.48279524px;stroke-linecap:butt;stroke-linejoin:miter;stroke-opacity:1"
       d="m 470.39791,436.50011 0,158.62083 -199.60194,0 0,-158.62083 z"
       id="path2991-3"
       inkscape:connector-curvature="0" />
    <path
       style="fill:#66ff00;stroke:#000000;stroke-width:1.48279524px;stroke-linecap:butt;stroke-linejoin:miter;stroke-opacity:1"
       d="m 337.32995,436.50011 0,52.87361 -66.53398,0 0,-52.87361 z"
       id="path3009-9"
       inkscape:connector-curvature="0" />
    <path
       style="fill:#66ff00;stroke:#000000;stroke-width:1.48279524px;stroke-linecap:butt;stroke-linejoin:miter;stroke-opacity:1"
       d="m 337.32995,436.50011 66.53398,0 0,52.87361 -66.53398,0 z"
       id="path3011-2"
       inkscape:connector-curvature="0" />
    <path
       style="fill:#80fffb;fill-opacity:1;stroke:#000000;stroke-width:1.48279524px;stroke-linecap:butt;stroke-linejoin:miter;stroke-opacity:1"
       d="m 403.86393,436.50011 66.53398,0 0,52.87361 -66.53398,0 z"
       id="path3013-8"
       inkscape:connector-curvature="0" />
    <path
       style="fill:none;stroke:#000000;stroke-width:1.48279524px;stroke-linecap:butt;stroke-linejoin:miter;stroke-opacity:1"
       d="m 270.79597,489.37372 0,52.87361 66.53398,0 0,-52.87361 z"
       id="path3015-8"
       inkscape:connector-curvature="0" />
    <path
       style="fill:none;stroke:#000000;stroke-width:1.48279524px;stroke-linecap:butt;stroke-linejoin:miter;stroke-opacity:1"
       d="m 337.32995,489.37372 0,52.87361 c 0,0 66.53398,0 66.53398,0 l 0,-52.87361 z"
       id="path3017-8"
       inkscape:connector-curvature="0" />
    <path
       style="fill:none;stroke:#000000;stroke-width:1.48279524px;stroke-linecap:butt;stroke-linejoin:miter;stroke-opacity:1"
       d="m 403.86393,489.37372 0,52.87361 66.53398,0 0,-52.87361 z"
       id="path3019-4"
       inkscape:connector-curvature="0" />
    <path
       style="fill:#ffff00;stroke:#000000;stroke-width:1.48279524px;stroke-linecap:butt;stroke-linejoin:miter;stroke-opacity:1"
       d="m 270.79597,542.24733 0,52.87361 66.53398,0 0,-52.87361 -66.53398,0"
       id="path3021-1"
       inkscape:connector-curvature="0" />
    <path
       style="fill:none;stroke:#000000;stroke-width:1.48279524px;stroke-linecap:butt;stroke-linejoin:miter;stroke-opacity:1"
       d="m 337.32995,542.24733 0,52.87361 66.53398,0 0,-52.87361 z"
       id="path3023-5"
       inkscape:connector-curvature="0" />
    <path
       style="fill:#66ff00;stroke:#000000;stroke-width:1.48279524px;stroke-linecap:butt;stroke-linejoin:miter;stroke-opacity:1"
       d="m 403.86393,542.24733 0,52.87361 66.53398,0 0,-52.87361 z"
       id="path3025-68"
       inkscape:connector-curvature="0" />
    <path
       style="fill:none;stroke:#000000;stroke-width:1.48279524px;stroke-linecap:butt;stroke-linejoin:miter;stroke-opacity:1"
       d="m 270.79597,753.74175 0,158.62081 -199.601939,0 0,-158.62081 z"
       id="path2991-6"
       inkscape:connector-curvature="0" />
    <path
       style="fill:none;stroke:#000000;stroke-width:1.48279524px;stroke-linecap:butt;stroke-linejoin:miter;stroke-opacity:1"
       d="m 137.72801,753.74175 0,52.8736 -66.533979,0 0,-52.8736 z"
       id="path3009-66"
       inkscape:connector-curvature="0" />
    <path
       style="fill:#ffff00;stroke:#000000;stroke-width:1.48279524px;stroke-linecap:butt;stroke-linejoin:miter;stroke-opacity:1"
       d="m 137.72801,753.74175 66.53398,0 0,52.8736 -66.53398,0 z"
       id="path3011-84"
       inkscape:connector-curvature="0" />
    <path
       style="fill:#ffff00;stroke:#000000;stroke-width:1.48279524px;stroke-linecap:butt;stroke-linejoin:miter;stroke-opacity:1"
       d="m 204.26199,753.74175 66.53398,0 0,52.8736 -66.53398,0 z"
       id="path3013-89"
       inkscape:connector-curvature="0" />
    <path
       style="fill:none;stroke:#000000;stroke-width:1.48279524px;stroke-linecap:butt;stroke-linejoin:miter;stroke-opacity:1"
       d="m 71.194031,806.61535 0,52.87361 66.533979,0 0,-52.87361 z"
       id="path3015-5"
       inkscape:connector-curvature="0" />
    <path
       style="fill:#66ff00;stroke:#000000;stroke-width:1.48279524px;stroke-linecap:butt;stroke-linejoin:miter;stroke-opacity:1"
       d="m 137.72801,806.61535 0,52.87361 c 0,0 66.53398,0 66.53398,0 l 0,-52.87361 z"
       id="path3017-48"
       inkscape:connector-curvature="0" />
    <path
       style="fill:none;stroke:#000000;stroke-width:1.48279524px;stroke-linecap:butt;stroke-linejoin:miter;stroke-opacity:1"
       d="m 204.26199,806.61535 0,52.87361 66.53398,0 0,-52.87361 z"
       id="path3019-5"
       inkscape:connector-curvature="0" />
    <path
       style="fill:none;stroke:#000000;stroke-width:1.48279524px;stroke-linecap:butt;stroke-linejoin:miter;stroke-opacity:1"
       d="m 71.194031,859.48896 0,52.8736 66.533979,0 0,-52.8736 -66.533979,0"
       id="path3021-2"
       inkscape:connector-curvature="0" />
    <path
       style="fill:#66ff00;stroke:#000000;stroke-width:1.48279524px;stroke-linecap:butt;stroke-linejoin:miter;stroke-opacity:1"
       d="m 137.72801,859.48896 0,52.8736 66.53398,0 0,-52.8736 z"
       id="path3023-6"
       inkscape:connector-curvature="0" />
    <path
       style="fill:none;stroke:#000000;stroke-width:1.48279524px;stroke-linecap:butt;stroke-linejoin:miter;stroke-opacity:1"
       d="m 204.26199,859.48896 0,52.8736 66.53398,0 0,-52.8736 z"
       id="path3025-66"
       inkscape:connector-curvature="0" />
    <path
       style="fill:none;stroke:#000000;stroke-width:1.48279524px;stroke-linecap:butt;stroke-linejoin:miter;stroke-opacity:1"
       d="m 669.99986,753.74175 0,158.62081 -199.60195,0 0,-158.62081 z"
       id="path2991-0"
       inkscape:connector-curvature="0" />
    <path
       style="fill:none;stroke:#000000;stroke-width:1.48279524px;stroke-linecap:butt;stroke-linejoin:miter;stroke-opacity:1"
       d="m 536.9319,753.74175 0,52.8736 -66.53399,0 0,-52.8736 z"
       id="path3009-02"
       inkscape:connector-curvature="0" />
    <path
       style="fill:#66ff00;stroke:#000000;stroke-width:1.48279524px;stroke-linecap:butt;stroke-linejoin:miter;stroke-opacity:1"
       d="m 536.9319,753.74175 66.53398,0 0,52.8736 -66.53398,0 z"
       id="path3011-23"
       inkscape:connector-curvature="0" />
    <path
       style="fill:#66ff00;stroke:#000000;stroke-width:1.48279524px;stroke-linecap:butt;stroke-linejoin:miter;stroke-opacity:1"
       d="m 603.46588,753.74175 66.53398,0 0,52.8736 -66.53398,0 z"
       id="path3013-5"
       inkscape:connector-curvature="0" />
    <path
       style="fill:none;stroke:#000000;stroke-width:1.48279524px;stroke-linecap:butt;stroke-linejoin:miter;stroke-opacity:1"
       d="m 470.39791,806.61535 0,52.87361 66.53399,0 0,-52.87361 z"
       id="path3015-2"
       inkscape:connector-curvature="0" />
    <path
       style="fill:#66ff00;stroke:#000000;stroke-width:1.48279524px;stroke-linecap:butt;stroke-linejoin:miter;stroke-opacity:1"
       d="m 536.9319,806.61535 0,52.87361 c 0,0 66.53398,0 66.53398,0 l 0,-52.87361 z"
       id="path3017-5"
       inkscape:connector-curvature="0" />
    <path
       style="fill:#66ff00;stroke:#000000;stroke-width:1.48279524px;stroke-linecap:butt;stroke-linejoin:miter;stroke-opacity:1"
       d="m 603.46588,806.61535 0,52.87361 66.53398,0 0,-52.87361 z"
       id="path3019-52"
       inkscape:connector-curvature="0" />
    <path
       style="fill:#ffff00;stroke:#000000;stroke-width:1.48279524px;stroke-linecap:butt;stroke-linejoin:miter;stroke-opacity:1"
       d="m 470.39791,859.48896 0,52.8736 66.53399,0 0,-52.8736 -66.53399,0"
       id="path3021-5"
       inkscape:connector-curvature="0" />
    <path
       style="fill:none;stroke:#000000;stroke-width:1.48279524px;stroke-linecap:butt;stroke-linejoin:miter;stroke-opacity:1"
       d="m 536.9319,859.48896 0,52.8736 66.53398,0 0,-52.8736 z"
       id="path3023-9"
       inkscape:connector-curvature="0" />
    <path
       style="fill:none;stroke:#000000;stroke-width:1.48279524px;stroke-linecap:butt;stroke-linejoin:miter;stroke-opacity:1"
       d="m 603.46588,859.48896 0,52.8736 66.53398,0 0,-52.8736 z"
       id="path3025-4"
       inkscape:connector-curvature="0" />
    <path
       style="fill:none;stroke:#000000;stroke-width:1.48279524px;stroke-linecap:butt;stroke-linejoin:miter;stroke-opacity:1"
       d="m 669.99986,595.12094 0,158.62081 -199.60195,0 0,-158.62081 z"
       id="path2991-2"
       inkscape:connector-curvature="0" />
    <path
       style="fill:none;stroke:#000000;stroke-width:1.48279524px;stroke-linecap:butt;stroke-linejoin:miter;stroke-opacity:1"
       d="m 536.9319,595.12094 0,52.87359 -66.53399,0 0,-52.87359 z"
       id="path3009-64"
       inkscape:connector-curvature="0" />
    <path
       style="fill:none;stroke:#000000;stroke-width:1.48279524px;stroke-linecap:butt;stroke-linejoin:miter;stroke-opacity:1"
       d="m 536.9319,595.12094 66.53398,0 0,52.87359 -66.53398,0 z"
       id="path3011-843"
       inkscape:connector-curvature="0" />
    <path
       style="fill:#66ff00;stroke:#000000;stroke-width:1.48279524px;stroke-linecap:butt;stroke-linejoin:miter;stroke-opacity:1"
       d="m 603.46588,595.12094 66.53398,0 0,52.87359 -66.53398,0 z"
       id="path3013-9"
       inkscape:connector-curvature="0" />
    <path
       style="fill:none;stroke:#000000;stroke-width:1.48279524px;stroke-linecap:butt;stroke-linejoin:miter;stroke-opacity:1"
       d="m 470.39791,647.99453 0,52.87361 66.53399,0 0,-52.87361 z"
       id="path3015-0"
       inkscape:connector-curvature="0" />
    <path
       style="fill:none;stroke:#000000;stroke-width:1.48279524px;stroke-linecap:butt;stroke-linejoin:miter;stroke-opacity:1"
       d="m 536.9319,647.99453 0,52.87361 c 0,0 66.53398,0 66.53398,0 l 0,-52.87361 z"
       id="path3017-1"
       inkscape:connector-curvature="0" />
    <path
       style="fill:#ffff00;stroke:#000000;stroke-width:1.48279524px;stroke-linecap:butt;stroke-linejoin:miter;stroke-opacity:1"
       d="m 603.46588,647.99453 0,52.87361 66.53398,0 0,-52.87361 z"
       id="path3019-8"
       inkscape:connector-curvature="0" />
    <path
       style="fill:none;stroke:#000000;stroke-width:1.48279524px;stroke-linecap:butt;stroke-linejoin:miter;stroke-opacity:1"
       d="m 470.39791,700.86814 0,52.87361 66.53399,0 0,-52.87361 -66.53399,0"
       id="path3021-55"
       inkscape:connector-curvature="0" />
    <path
       style="fill:none;stroke:#000000;stroke-width:1.48279524px;stroke-linecap:butt;stroke-linejoin:miter;stroke-opacity:1"
       d="m 536.9319,700.86814 0,52.87361 66.53398,0 0,-52.87361 z"
       id="path3023-8"
       inkscape:connector-curvature="0" />
    <path
       style="fill:#ffff00;stroke:#000000;stroke-width:1.48279524px;stroke-linecap:butt;stroke-linejoin:miter;stroke-opacity:1"
       d="m 603.46588,700.86814 0,52.87361 66.53398,0 0,-52.87361 z"
       id="path3025-1"
       inkscape:connector-curvature="0" />
    <path
       style="fill:none;stroke:#000000;stroke-width:1.48279524px;stroke-linecap:butt;stroke-linejoin:miter;stroke-opacity:1"
       d="m 470.39791,753.74175 0,158.62081 -199.60194,0 0,-158.62081 z"
       id="path2991-7"
       inkscape:connector-curvature="0" />
    <path
       style="fill:none;stroke:#000000;stroke-width:1.48279524px;stroke-linecap:butt;stroke-linejoin:miter;stroke-opacity:1"
       d="m 337.32995,753.74175 0,52.8736 -66.53398,0 0,-52.8736 z"
       id="path3009-4"
       inkscape:connector-curvature="0" />
    <path
       style="fill:#00ff00;stroke:#000000;stroke-width:1.48279524px;stroke-linecap:butt;stroke-linejoin:miter;stroke-opacity:1"
       d="m 337.32995,753.74175 66.53398,0 0,52.8736 -66.53398,0 z"
       id="path3011-9"
       inkscape:connector-curvature="0" />
    <path
       style="fill:#ffff00;stroke:#000000;stroke-width:1.48279524px;stroke-linecap:butt;stroke-linejoin:miter;stroke-opacity:1"
       d="m 403.86393,753.74175 66.53398,0 0,52.8736 -66.53398,0 z"
       id="path3013-55"
       inkscape:connector-curvature="0" />
    <path
       style="fill:#00ff00;stroke:#000000;stroke-width:1.48279524px;stroke-linecap:butt;stroke-linejoin:miter;stroke-opacity:1"
       d="m 270.79597,806.61535 0,52.87361 66.53398,0 0,-52.87361 z"
       id="path3015-9"
       inkscape:connector-curvature="0" />
    <path
       style="fill:#00ff00;stroke:#000000;stroke-width:1.48279524px;stroke-linecap:butt;stroke-linejoin:miter;stroke-opacity:1"
       d="m 337.32995,806.61535 0,52.87361 c 0,0 66.53398,0 66.53398,0 l 0,-52.87361 z"
       id="path3017-7"
       inkscape:connector-curvature="0" />
    <path
       style="fill:none;stroke:#000000;stroke-width:1.48279524px;stroke-linecap:butt;stroke-linejoin:miter;stroke-opacity:1"
       d="m 403.86393,806.61535 0,52.87361 66.53398,0 0,-52.87361 z"
       id="path3019-7"
       inkscape:connector-curvature="0" />
    <path
       style="fill:#66ff00;stroke:#000000;stroke-width:1.48279524px;stroke-linecap:butt;stroke-linejoin:miter;stroke-opacity:1"
       d="m 270.79597,859.48896 0,52.8736 66.53398,0 0,-52.8736 -66.53398,0"
       id="path3021-45"
       inkscape:connector-curvature="0" />
    <path
       style="fill:#ffff00;stroke:#000000;stroke-width:1.48279524px;stroke-linecap:butt;stroke-linejoin:miter;stroke-opacity:1"
       d="m 337.32995,859.48896 0,52.8736 66.53398,0 0,-52.8736 z"
       id="path3023-1"
       inkscape:connector-curvature="0" />
    <path
       style="fill:#ffff00;stroke:#000000;stroke-width:1.48279524px;stroke-linecap:butt;stroke-linejoin:miter;stroke-opacity:1"
       d="m 403.86393,859.48896 0,52.8736 66.53398,0 0,-52.8736 z"
       id="path3025-10"
       inkscape:connector-curvature="0" />
    <path
       style="fill:none;stroke:#000000;stroke-width:1.48279524px;stroke-linecap:butt;stroke-linejoin:miter;stroke-opacity:1"
       d="m 470.39791,595.12094 0,158.62081 -199.60194,0 0,-158.62081 z"
       id="path2991-67"
       inkscape:connector-curvature="0" />
    <path
       style="fill:#ffff00;stroke:#000000;stroke-width:1.48279524px;stroke-linecap:butt;stroke-linejoin:miter;stroke-opacity:1"
       d="m 337.32995,595.12094 0,52.87359 -66.53398,0 0,-52.87359 z"
       id="path3009-00"
       inkscape:connector-curvature="0" />
    <path
       style="fill:none;stroke:#000000;stroke-width:1.48279524px;stroke-linecap:butt;stroke-linejoin:miter;stroke-opacity:1"
       d="m 337.32995,595.12094 66.53398,0 0,52.87359 -66.53398,0 z"
       id="path3011-1"
       inkscape:connector-curvature="0" />
    <path
       style="fill:#66ff00;stroke:#000000;stroke-width:1.48279524px;stroke-linecap:butt;stroke-linejoin:miter;stroke-opacity:1"
       d="m 403.86393,595.12094 66.53398,0 0,52.87359 -66.53398,0 z"
       id="path3013-86"
       inkscape:connector-curvature="0" />
    <path
       style="fill:none;stroke:#000000;stroke-width:1.48279524px;stroke-linecap:butt;stroke-linejoin:miter;stroke-opacity:1"
       d="m 270.79597,647.99453 0,52.87361 66.53398,0 0,-52.87361 z"
       id="path3015-02"
       inkscape:connector-curvature="0" />
    <path
       style="fill:none;stroke:#000000;stroke-width:1.48279524px;stroke-linecap:butt;stroke-linejoin:miter;stroke-opacity:1"
       d="m 337.32995,647.99453 0,52.87361 c 0,0 66.53398,0 66.53398,0 l 0,-52.87361 z"
       id="path3017-9"
       inkscape:connector-curvature="0" />
    <path
       style="fill:#66ff00;stroke:#000000;stroke-width:1.48279524px;stroke-linecap:butt;stroke-linejoin:miter;stroke-opacity:1"
       d="m 403.86393,647.99453 0,52.87361 66.53398,0 0,-52.87361 z"
       id="path3019-1"
       inkscape:connector-curvature="0" />
    <path
       style="fill:none;stroke:#000000;stroke-width:1.48279524px;stroke-linecap:butt;stroke-linejoin:miter;stroke-opacity:1"
       d="m 270.79597,700.86814 0,52.87361 66.53398,0 0,-52.87361 -66.53398,0"
       id="path3021-51"
       inkscape:connector-curvature="0" />
    <path
       style="fill:none;stroke:#000000;stroke-width:1.48279524px;stroke-linecap:butt;stroke-linejoin:miter;stroke-opacity:1"
       d="m 337.32995,700.86814 0,52.87361 66.53398,0 0,-52.87361 z"
       id="path3023-10"
       inkscape:connector-curvature="0" />
    <path
       style="fill:#ffff00;stroke:#000000;stroke-width:1.48279524px;stroke-linecap:butt;stroke-linejoin:miter;stroke-opacity:1"
       d="m 403.86393,700.86814 0,52.87361 66.53398,0 0,-52.87361 z"
       id="path3025-8"
       inkscape:connector-curvature="0" />
    <path
       style="fill:#ffff00;stroke:#000000;stroke-width:1.48279524px;stroke-linecap:butt;stroke-linejoin:miter;stroke-opacity:1"
       d="m 470.39791,753.74175 66.53399,0 0,52.8736 -66.53399,0 z"
       id="path3013-55-0"
       inkscape:connector-curvature="0" />
    <path
       style="fill:#ff00ff;stroke:#000000;stroke-width:1.48279524px;stroke-linecap:butt;stroke-linejoin:miter;stroke-opacity:1"
       d="m 270.79597,489.37372 66.53398,0 0,52.87361 -66.53398,0 z"
       id="path3013-55-3"
       inkscape:connector-curvature="0" />
    <path
       style="fill:#ff00ff;stroke:#000000;stroke-width:1.48279524px;stroke-linecap:butt;stroke-linejoin:miter;stroke-opacity:1"
       d="m 204.26199,859.48896 66.53398,0 0,52.8736 -66.53398,0 z"
       id="path3013-55-3-8"
       inkscape:connector-curvature="0" />
    <path
       style="fill:#ff00ff;stroke:#000000;stroke-width:1.48279524px;stroke-linecap:butt;stroke-linejoin:miter;stroke-opacity:1"
       d="m 204.26199,489.37372 66.53398,0 0,52.87361 -66.53398,0 z"
       id="path3013-55-3-4"
       inkscape:connector-curvature="0" />
    <path
       style="fill:#ff00ff;stroke:#000000;stroke-width:1.48279524px;stroke-linecap:butt;stroke-linejoin:miter;stroke-opacity:1"
       d="m 337.32995,595.12094 66.53398,0 0,52.87359 -66.53398,0 z"
       id="path3013-55-3-8-4"
       inkscape:connector-curvature="0" />
    <path
       style="fill:#ff00ff;stroke:#000000;stroke-width:1.48279524px;stroke-linecap:butt;stroke-linejoin:miter;stroke-opacity:1"
       d="m 337.32995,700.86814 66.53398,0 0,52.87361 -66.53398,0 z"
       id="path3013-55-3-8-3"
       inkscape:connector-curvature="0" />
    <path
       style="fill:#ff00ff;stroke:#000000;stroke-width:1.48279524px;stroke-linecap:butt;stroke-linejoin:miter;stroke-opacity:1"
       d="m 204.26199,595.12094 66.53398,0 0,52.87359 -66.53398,0 z"
       id="path3013-55-3-8-1"
       inkscape:connector-curvature="0" />
    <path
       style="fill:#ff00ff;stroke:#000000;stroke-width:1.48279524px;stroke-linecap:butt;stroke-linejoin:miter;stroke-opacity:1"
       d="m 403.86393,806.61535 66.53398,0 0,52.87361 -66.53398,0 z"
       id="path3013-55-3-8-41"
       inkscape:connector-curvature="0" />
    <path
       style="fill:#ff00ff;stroke:#000000;stroke-width:1.48279524px;stroke-linecap:butt;stroke-linejoin:miter;stroke-opacity:1"
       d="m 204.26199,806.61535 66.53398,0 0,52.87361 -66.53398,0 z"
       id="path3013-55-3-8-9"
       inkscape:connector-curvature="0" />
    <path
       style="fill:#ff00ff;stroke:#000000;stroke-width:1.48279524px;stroke-linecap:butt;stroke-linejoin:miter;stroke-opacity:1"
       d="m 337.32995,647.99453 66.53398,0 0,52.87361 -66.53398,0 z"
       id="path3013-55-3-8-8"
       inkscape:connector-curvature="0" />
    <path
       style="fill:#ff00ff;stroke:#000000;stroke-width:1.48279524px;stroke-linecap:butt;stroke-linejoin:miter;stroke-opacity:1"
       d="m 137.72801,595.12094 66.53398,0 0,52.87359 -66.53398,0 z"
       id="path3013-55-3-8-6"
       inkscape:connector-curvature="0" />
    <path
       style="fill:#ff00ff;stroke:#000000;stroke-width:1.48279524px;stroke-linecap:butt;stroke-linejoin:miter;stroke-opacity:1"
       d="m 536.9319,595.12094 66.53398,0 0,52.87359 -66.53398,0 z"
       id="path3013-55-3-8-2"
       inkscape:connector-curvature="0" />
    <path
       style="fill:#ff00ff;stroke:#000000;stroke-width:1.48279524px;stroke-linecap:butt;stroke-linejoin:miter;stroke-opacity:1"
       d="m 470.39791,647.99453 66.53399,0 0,52.87361 -66.53399,0 z"
       id="path3013-55-3-8-89"
       inkscape:connector-curvature="0" />
    <path
       style="fill:#ff00ff;stroke:#000000;stroke-width:1.48279524px;stroke-linecap:butt;stroke-linejoin:miter;stroke-opacity:1"
       d="m 536.9319,647.99453 66.53398,0 0,52.87361 -66.53398,0 z"
       id="path3013-55-3-8-287"
       inkscape:connector-curvature="0" />
    <path
       style="fill:#ff00ff;stroke:#000000;stroke-width:1.48279524px;stroke-linecap:butt;stroke-linejoin:miter;stroke-opacity:1"
       d="m 470.39791,806.61535 66.53399,0 0,52.87361 -66.53399,0 z"
       id="path3013-55-3-8-43"
       inkscape:connector-curvature="0" />
    <path
       style="fill:#0000ff;stroke:#000000;stroke-width:1.48279524px;stroke-linecap:butt;stroke-linejoin:miter;stroke-opacity:1"
       d="m 71.194031,542.24733 66.533979,0 0,52.87361 -66.533979,0 z"
       id="path3013-55-3-8-65"
       inkscape:connector-curvature="0" />
    <path
       style="fill:#0000ff;stroke:#000000;stroke-width:1.48279524px;stroke-linecap:butt;stroke-linejoin:miter;stroke-opacity:1"
       d="m 337.32995,489.37372 66.53398,0 0,52.87361 -66.53398,0 z"
       id="path3013-55-3-8-65-8"
       inkscape:connector-curvature="0" />
    <path
       style="fill:#0000ff;stroke:#000000;stroke-width:1.48279524px;stroke-linecap:butt;stroke-linejoin:miter;stroke-opacity:1"
       d="m 403.86393,489.37372 66.53398,0 0,52.87361 -66.53398,0 z"
       id="path3013-55-3-8-65-7"
       inkscape:connector-curvature="0" />
    <path
       style="fill:#0000ff;stroke:#000000;stroke-width:1.48279524px;stroke-linecap:butt;stroke-linejoin:miter;stroke-opacity:1"
       d="m 270.79597,647.99453 66.53398,0 0,52.87365 -66.53398,0 z"
       id="path3013-55-3-8-65-70"
       inkscape:connector-curvature="0" />
    <path
       style="fill:#0000ff;stroke:#000000;stroke-width:1.48279524px;stroke-linecap:butt;stroke-linejoin:miter;stroke-opacity:1"
       d="m 137.72801,542.24733 66.53398,0 0,52.87361 -66.53398,0 z"
       id="path3013-55-3-8-65-89"
       inkscape:connector-curvature="0" />
    <path
       style="fill:#0000ff;stroke:#000000;stroke-width:1.48279524px;stroke-linecap:butt;stroke-linejoin:miter;stroke-opacity:1"
       d="m 337.32995,542.24733 66.53398,0 0,52.87361 -66.53398,0 z"
       id="path3013-55-3-8-65-4"
       inkscape:connector-curvature="0" />
    <path
       style="fill:#0000ff;stroke:#000000;stroke-width:1.48279524px;stroke-linecap:butt;stroke-linejoin:miter;stroke-opacity:1"
       d="m 470.39791,595.12094 66.53399,0 0,52.87359 -66.53399,0 z"
       id="path3013-55-3-8-65-6"
       inkscape:connector-curvature="0" />
    <path
       style="fill:#0000ff;stroke:#000000;stroke-width:1.48279524px;stroke-linecap:butt;stroke-linejoin:miter;stroke-opacity:1"
       d="m 470.39791,542.24733 66.53399,0 0,52.87361 -66.53399,0 z"
       id="path3013-55-3-8-65-3"
       inkscape:connector-curvature="0" />
    <path
       style="fill:#0000ff;stroke:#000000;stroke-width:1.48279524px;stroke-linecap:butt;stroke-linejoin:miter;stroke-opacity:1"
       d="m 470.39791,489.37372 66.53399,0 0,52.87361 -66.53399,0 z"
       id="path3013-55-3-8-65-895"
       inkscape:connector-curvature="0" />
    <path
       style="fill:#0000ff;stroke:#000000;stroke-width:1.48279524px;stroke-linecap:butt;stroke-linejoin:miter;stroke-opacity:1"
       d="m 536.9319,542.24733 66.53398,0 0,52.87361 -66.53398,0 z"
       id="path3013-55-3-8-65-42"
       inkscape:connector-curvature="0" />
    <path
       style="fill:#0000ff;stroke:#000000;stroke-width:1.48279524px;stroke-linecap:butt;stroke-linejoin:miter;stroke-opacity:1"
       d="m 137.72801,489.37372 66.53398,0 0,52.87361 -66.53398,0 z"
       id="path3013-55-3-8-65-65"
       inkscape:connector-curvature="0" />
    <path
       style="fill:#0000ff;stroke:#000000;stroke-width:1.48279524px;stroke-linecap:butt;stroke-linejoin:miter;stroke-opacity:1"
       d="m 71.194031,753.74175 66.533979,0 0,52.8736 -66.533979,0 z"
       id="path3013-55-3-8-65-0"
       inkscape:connector-curvature="0" />
    <path
       style="fill:#0000ff;stroke:#000000;stroke-width:1.48279524px;stroke-linecap:butt;stroke-linejoin:miter;stroke-opacity:1"
       d="m 270.79597,700.86814 66.53398,0 0,52.87361 -66.53398,0 z"
       id="path3013-55-3-8-65-07"
       inkscape:connector-curvature="0" />
    <path
       style="fill:#0000ff;stroke:#000000;stroke-width:1.48279524px;stroke-linecap:butt;stroke-linejoin:miter;stroke-opacity:1"
       d="m 71.194031,806.61535 66.533979,0 0,52.87361 -66.533979,0 z"
       id="path3013-55-3-8-65-1"
       inkscape:connector-curvature="0" />
    <path
       style="fill:#0000ff;stroke:#000000;stroke-width:1.48279524px;stroke-linecap:butt;stroke-linejoin:miter;stroke-opacity:1"
       d="m 270.79597,753.74175 66.53398,0 0,52.87362 -66.53398,0 z"
       id="path3013-55-3-8-65-06"
       inkscape:connector-curvature="0" />
    <path
       style="fill:#0000ff;stroke:#000000;stroke-width:1.48279524px;stroke-linecap:butt;stroke-linejoin:miter;stroke-opacity:1"
       d="m 71.194031,859.48896 66.533979,0 0,52.8736 -66.533979,0 z"
       id="path3013-55-3-8-65-5"
       inkscape:connector-curvature="0" />
    <path
       style="fill:#0000ff;stroke:#000000;stroke-width:1.48279524px;stroke-linecap:butt;stroke-linejoin:miter;stroke-opacity:1"
       d="m 71.194031,700.86814 66.533979,0 0,52.87361 -66.533979,0 z"
       id="path3013-55-3-8-65-35"
       inkscape:connector-curvature="0" />
    <path
       style="fill:#0000ff;stroke:#000000;stroke-width:1.48279524px;stroke-linecap:butt;stroke-linejoin:miter;stroke-opacity:1"
       d="m 603.46588,859.48896 66.53398,0 0,52.8736 -66.53398,0 z"
       id="path3013-55-3-8-65-2"
       inkscape:connector-curvature="0" />
    <path
       style="fill:#0000ff;stroke:#000000;stroke-width:1.48279524px;stroke-linecap:butt;stroke-linejoin:miter;stroke-opacity:1"
       d="m 536.9319,859.48896 66.53398,0 0,52.8736 -66.53398,0 z"
       id="path3013-55-3-8-65-60"
       inkscape:connector-curvature="0" />
    <path
       style="fill:#0000ff;stroke:#000000;stroke-width:1.48279524px;stroke-linecap:butt;stroke-linejoin:miter;stroke-opacity:1"
       d="m 536.9319,700.86814 66.53398,0 0,52.87361 -66.53398,0 z"
       id="path3013-55-3-8-65-01"
       inkscape:connector-curvature="0" />
    <path
       style="fill:#0000ff;stroke:#000000;stroke-width:1.48279524px;stroke-linecap:butt;stroke-linejoin:miter;stroke-opacity:1"
       d="m 470.39791,700.86814 66.53399,0 0,52.87361 -66.53399,0 z"
       id="path3013-55-3-8-65-44"
       inkscape:connector-curvature="0" />
    <path
       style="fill:#0000ff;stroke:#000000;stroke-width:1.48279524px;stroke-linecap:butt;stroke-linejoin:miter;stroke-opacity:1"
       d="m 403.86393,436.50011 66.53398,0 0,52.87361 -66.53398,0 z"
       id="path3013-55-3-8-65-91"
       inkscape:connector-curvature="0" />
    <text
       xml:space="preserve"
       style="font-size:16.71412468px;font-style:normal;font-variant:normal;font-weight:normal;font-stretch:normal;text-align:start;line-height:125%;letter-spacing:0px;word-spacing:0px;writing-mode:lr-tb;text-anchor:start;fill:#000000;fill-opacity:1;stroke:none;font-family:Sans;-inkscape-font-specification:Sans"
       x="75.921806"
       y="476.66113"
       id="text4422"
       sodipodi:linespacing="125%"
       transform="scale(1.0537157,0.94902257)"><tspan
         sodipodi:role="line"
         id="tspan4424"
         x="75.921806"
         y="476.66113">3</tspan></text>
    <text
       xml:space="preserve"
       style="font-size:56px;font-style:normal;font-weight:normal;line-height:125%;letter-spacing:0px;word-spacing:0px;fill:#ff0000;fill-opacity:1;stroke:none;font-family:Sans"
       x="171.42857"
       y="158.07648"
       id="text3620"
       sodipodi:linespacing="125%"><tspan
         sodipodi:role="line"
         id="tspan3622"
         x="171.42857"
         y="158.07648">KILLER SUDOKU</tspan></text>
    <rect
       style="fill:#00ffff;fill-opacity:1"
       id="rect3624"
       width="320"
       height="80"
       x="211.42857"
       y="266.64789" />
    <text
       xml:space="preserve"
       style="font-size:56px;font-style:normal;font-weight:normal;line-height:125%;letter-spacing:0px;word-spacing:0px;fill:#000000;fill-opacity:1;stroke:none;font-family:Sans"
       x="280"
       y="332.36218"
       id="text3626"
       sodipodi:linespacing="125%"><tspan
         sodipodi:role="line"
         id="tspan3628"
         x="280"
         y="332.36218">VERIFY</tspan></text>
    <text
       xml:space="preserve"
       style="font-size:12px;font-style:normal;font-weight:normal;line-height:125%;letter-spacing:0px;word-spacing:0px;fill:#000000;fill-opacity:1;stroke:none;font-family:Sans"
       x="217.1828"
       y="444.25034"
       id="text3649"
       sodipodi:linespacing="125%"><tspan
         sodipodi:role="line"
         id="tspan3651"
         x="217.1828"
         y="444.25034" /><tspan
         sodipodi:role="line"
         id="tspan3653"
         x="217.1828"
         y="459.25034">13</tspan></text>
    <text
       xml:space="preserve"
       style="font-size:12px;font-style:normal;font-weight:normal;line-height:125%;letter-spacing:0px;word-spacing:0px;fill:#000000;fill-opacity:1;stroke:none;font-family:Sans"
       x="362.64474"
       y="454.35187"
       id="text3655"
       sodipodi:linespacing="125%"><tspan
         sodipodi:role="line"
         id="tspan3657"
         x="362.64474"
         y="454.35187">15</tspan></text>
    <text
       xml:space="preserve"
       style="font-size:12px;font-style:normal;font-weight:normal;line-height:125%;letter-spacing:0px;word-spacing:0px;fill:#000000;fill-opacity:1;stroke:none;font-family:Sans"
       x="501.03568"
       y="524.05243"
       id="text3659"
       sodipodi:linespacing="125%"><tspan
         sodipodi:role="line"
         id="tspan3661"
         x="501.03568"
         y="524.05243">27</tspan></text>
    <text
       xml:space="preserve"
       style="font-size:12px;font-style:normal;font-weight:normal;line-height:125%;letter-spacing:0px;word-spacing:0px;fill:#000000;fill-opacity:1;stroke:none;font-family:Sans"
       x="345.47217"
       y="605.87476"
       id="text3663"
       sodipodi:linespacing="125%"><tspan
         sodipodi:role="line"
         id="tspan3665"
         x="345.47217"
         y="605.87476">34</tspan></text>
    <text
       xml:space="preserve"
       style="font-size:12px;font-style:normal;font-weight:normal;line-height:125%;letter-spacing:0px;word-spacing:0px;fill:#000000;fill-opacity:1;stroke:none;font-family:Sans"
       x="286.88333"
       y="713.96106"
       id="text3667"
       sodipodi:linespacing="125%"><tspan
         sodipodi:role="line"
         id="tspan3669"
         x="286.88333"
         y="713.96106">56</tspan></text>
    <text
       xml:space="preserve"
       style="font-size:12px;font-style:normal;font-weight:normal;line-height:125%;letter-spacing:0px;word-spacing:0px;fill:#000000;fill-opacity:1;stroke:none;font-family:Sans"
       x="142.4315"
       y="607.89508"
       id="text3671"
       sodipodi:linespacing="125%"><tspan
         sodipodi:role="line"
         id="tspan3673"
         x="142.4315"
         y="607.89508">23</tspan></text>
    <text
       xml:space="preserve"
       style="font-size:12px;font-style:normal;font-weight:normal;line-height:125%;letter-spacing:0px;word-spacing:0px;fill:#000000;fill-opacity:1;stroke:none;font-family:Sans"
       x="94.954338"
       y="719.01184"
       id="text3675"
       sodipodi:linespacing="125%"><tspan
         sodipodi:role="line"
         id="tspan3677"
         x="94.954338"
         y="719.01184">6</tspan></text>
    <text
       xml:space="preserve"
       style="font-size:12px;font-style:normal;font-weight:normal;line-height:125%;letter-spacing:0px;word-spacing:0px;fill:#000000;fill-opacity:1;stroke:none;font-family:Sans"
       x="211.12189"
       y="765.47888"
       id="text3679"
       sodipodi:linespacing="125%"><tspan
         sodipodi:role="line"
         id="tspan3681"
         x="211.12189"
         y="765.47888">7</tspan></text>
    <text
       xml:space="preserve"
       style="font-size:12px;font-style:normal;font-weight:normal;line-height:125%;letter-spacing:0px;word-spacing:0px;fill:#000000;fill-opacity:1;stroke:none;font-family:Sans"
       x="490.93414"
       y="722.0423"
       id="text3683"
       sodipodi:linespacing="125%"><tspan
         sodipodi:role="line"
         id="tspan3685"
         x="490.93414"
         y="722.0423">8</tspan></text>
    <text
       xml:space="preserve"
       style="font-size:12px;font-style:normal;font-weight:normal;line-height:125%;letter-spacing:0px;word-spacing:0px;fill:#000000;fill-opacity:1;stroke:none;font-family:Sans"
       x="483.86307"
       y="606.88489"
       id="text3687"
       sodipodi:linespacing="125%"><tspan
         sodipodi:role="line"
         id="tspan3689"
         x="483.86307"
         y="606.88489">12</tspan></text>
    <text
       xml:space="preserve"
       style="font-size:12px;font-style:normal;font-weight:normal;line-height:125%;letter-spacing:0px;word-spacing:0px;fill:#000000;fill-opacity:1;stroke:none;font-family:Sans"
       x="613.1626"
       y="775.58038"
       id="text3691"
       sodipodi:linespacing="125%"><tspan
         sodipodi:role="line"
         id="tspan3693"
         x="613.1626"
         y="775.58038">14</tspan></text>
    <text
       xml:space="preserve"
       style="font-size:12px;font-style:normal;font-weight:normal;line-height:125%;letter-spacing:0px;word-spacing:0px;fill:#000000;fill-opacity:1;stroke:none;font-family:Sans"
       x="493.9646"
       y="816.99664"
       id="text3695"
       sodipodi:linespacing="125%"><tspan
         sodipodi:role="line"
         id="tspan3697"
         x="493.9646"
         y="816.99664">`14</tspan></text>
    <text
       xml:space="preserve"
       style="font-size:12px;font-style:normal;font-weight:normal;line-height:125%;letter-spacing:0px;word-spacing:0px;fill:#000000;fill-opacity:1;stroke:none;font-family:Sans"
       x="95.964493"
       y="822.04742"
       id="text3699"
       sodipodi:linespacing="125%"><tspan
         sodipodi:role="line"
         id="tspan3701"
         x="95.964493"
         y="822.04742">17</tspan></text>
    <text
       xml:space="preserve"
       style="font-size:12px;font-style:normal;font-weight:normal;line-height:125%;letter-spacing:0px;word-spacing:0px;fill:#000000;fill-opacity:1;stroke:none;font-family:Sans"
       x="291.93408"
       y="824.06769"
       id="text3158"
       sodipodi:linespacing="125%"><tspan
         sodipodi:role="line"
         id="tspan3160"
         x="291.93408"
         y="824.06769">18</tspan></text>
    <text
       xml:space="preserve"
       style="font-size:12px;font-style:normal;font-weight:normal;line-height:125%;letter-spacing:0px;word-spacing:0px;fill:#000000;fill-opacity:1;stroke:none;font-family:Sans"
       x="545.48236"
       y="873.56519"
       id="text3162"
       sodipodi:linespacing="125%"><tspan
         sodipodi:role="line"
         id="tspan3164"
         x="545.48236"
         y="873.56519">12</tspan></text>
    <text
       xml:space="preserve"
       style="font-size:12px;font-style:normal;font-weight:normal;line-height:125%;letter-spacing:0px;word-spacing:0px;fill:#000000;fill-opacity:1;stroke:none;font-family:Sans"
       x="213.1422"
       y="875.58551"
       id="text3166"
       sodipodi:linespacing="125%"><tspan
         sodipodi:role="line"
         id="tspan3168"
         x="213.1422"
         y="875.58551">11</tspan></text>
  </g>
</svg>
